Coordinates
version=1
nRows=12
nColumns=24
inDegrees=yes

Units are S.I. units (second, meters, Newtons, ...)
Angles are in degrees.

endheader
time	pelvis_tilt	pelvis_list	pelvis_rotation	pelvis_tx	pelvis_ty	pelvis_tz	hip_flexion_r	hip_adduction_r	hip_rotation_r	knee_angle_r	ankle_angle_r	subtalar_angle_r	mtp_angle_r	hip_flexion_l	hip_adduction_l	hip_rotation_l	knee_angle_l	ankle_angle_l	subtalar_angle_l	mtp_angle_l	lumbar_extension	lumbar_bending	lumbar_rotation
      1.47566667	      0.50233923	     -3.22897750	     -8.27844944	      0.94816460	      0.99011051	      0.31236613	    -21.92518965	      5.45668670	      6.53812303	     -6.66337522	     15.23314824	     -2.56565744	      2.11329716	     27.94280528	     -5.18221105	     -5.68522359	      1.06501544	     10.11233312	     -7.59675699	     -3.18381886	     -1.22457709	      0.16638996	      9.54253208
      1.47983333	      0.40728203	     -3.11873203	     -8.44990591	      0.95439125	      0.98927926	      0.31228846	    -22.08586998	      5.23573761	      6.60833207	     -6.81417973	     15.00092691	     -2.62159763	      2.20286547	     28.08418144	     -5.12980571	     -5.41622831	      0.33599566	     10.36384819	     -7.86858200	     -3.00240805	     -0.98464412	      0.05535657	      9.80336208
      1.48400000	      0.37817882	     -2.99123049	     -8.59402656	      0.96069192	      0.98854166	      0.31215097	    -22.31007266	      4.98980380	      6.58745931	     -6.97470606	     14.77848412	     -2.59527002	      2.22712304	     28.13937246	     -5.03370607	     -5.17030509	     -0.37034193	     10.63618666	     -8.06180141	     -2.94768510	     -0.82540829	     -0.09935641	      9.88296503
      1.48816667	      0.31360895	     -2.86039410	     -8.74624005	      0.96706015	      0.98778415	      0.31199747	    -22.48422742	      4.74169174	      6.57630969	     -7.15885471	     14.52316990	     -2.57755579	      2.26046348	     28.21302931	     -4.93473488	     -4.92714953	     -1.05909292	     10.86462621	     -8.28250756	     -2.88785099	     -0.62686605	     -0.23145900	     10.01643510
      1.49233333	      0.19107271	     -2.75425477	     -8.88818952	      0.97346138	      0.98695790	      0.31181841	    -22.59264245	      4.53395799	      6.60933840	     -7.35813582	     14.23825971	     -2.61859696	      2.39357688	     28.32856509	     -4.85508225	     -4.60090372	     -1.70600141	     10.92166174	     -8.63210693	     -2.72340308	     -0.32594276	     -0.33397254	     10.35675800
      1.49650000	      0.11074070	     -2.62162440	     -9.04767343	      0.97993791	      0.98623187	      0.31164764	    -22.72645768	      4.28239600	      6.61037060	     -7.58834066	     13.93651634	     -2.62393800	      2.56224652	     28.37435108	     -4.74608302	     -4.35367227	     -2.31983241	     10.96370132	     -8.96571527	     -2.53034352	     -0.08002570	     -0.47310126	     10.55708418
      1.50066667	      0.06736808	     -2.48193074	     -9.22847142	      0.98646469	      0.98560504	      0.31148300	    -22.87481048	      4.00521540	      6.59000410	     -7.86438124	     13.63102022	     -2.59030487	      2.63911864	     28.34860324	     -4.63241098	     -4.22763336	     -2.88119870	     11.03437618	     -9.17345422	     -2.44288774	      0.13487865	     -0.60890201	     10.64481324
      1.50483333	     -0.04085098	     -2.35204621	     -9.39283310	      0.99302592	      0.98489251	      0.31125967	    -22.94345008	      3.75368717	      6.58130719	     -8.15501134	     13.24496919	     -2.60134534	      5.48626440	     28.37376217	     -4.51669104	     -3.97188713	     -3.38051933	     10.78278288	     -9.71585924	      0.23082013	      0.40816355	     -0.71213609	     10.77915305
      1.50900000	     -0.08125425	     -2.19264156	     -9.55919472	      0.99969423	      0.98432570	      0.31104517	    -23.07612620	      3.45674047	      6.52426702	     -8.45819835	     12.88401701	     -2.55700212	      5.50409752	     28.32182301	     -4.36990368	     -3.92533354	     -3.88990331	     10.71585350	     -9.84479826	      0.25019330	      0.63979631	     -0.88129161	     10.96282832
      1.51316667	     -0.14242185	     -2.04068207	     -9.71770569	      1.00634140	      0.98375539	      0.31079076	    -23.16070255	      3.17402009	      6.46796833	     -8.80817869	     12.51810866	     -2.51008413	      5.54206255	     28.28557199	     -4.22522244	     -3.88311726	     -4.36694463	     10.52408947	    -10.01547456	      0.28103438	      0.88669052	     -1.02736243	     11.13914362
      1.51733333	     -0.23349120	     -1.88741808	     -9.89973923	      1.01303941	      0.98318322	      0.31054984	    -23.18406480	      2.88549430	      6.42668371	     -9.21652131	     12.18080505	     -2.44601658	      5.72438837	     28.24526232	     -4.08212772	     -3.75327061	     -4.76703266	     10.14758251	    -10.49577879	      0.41312095	      1.16513161	     -1.15807825	     11.50374937
      1.52150000	     -0.28876806	     -1.71337737	    -10.04879664	      1.01978673	      0.98268562	      0.31024685	    -23.23398711	      2.57862596	      6.31824321	     -9.63524261	     11.80247273	     -2.35936387	      6.02771760	     28.15945593	     -3.89794139	     -3.68444901	     -5.12519908	      9.69602628	    -10.85337560	      0.63453612	      1.41288786	     -1.34321017	     11.66852032
